<svg xmlns="http://www.w3.org/2000/svg" xmlns:xlink="http://www.w3.org/1999/xlink" width="100" zoomAndPan="magnify" viewBox="0 0 75 30.000001" height="40" preserveAspectRatio="xMidYMid meet" version="1.0"><defs><g/><clipPath id="94bd947ef2"><path d="M 28.25 0 L 46 0 L 46 15 L 28.25 15 Z M 28.25 0 " clip-rule="nonzero"/></clipPath><clipPath id="2c6f7e945e"><rect x="0" width="41" y="0" height="13"/></clipPath></defs><g clip-path="url(#94bd947ef2)"><path fill="#004aad" d="M 44.101562 11.671875 C 44.4375 12.359375 45.023438 13.460938 45.59375 14.03125 C 45.59375 14.03125 44.007812 15.355469 41.082031 14.03125 C 35.398438 16.703125 28.277344 13.179688 28.277344 7.464844 C 28.277344 3.339844 32.15625 0 36.933594 0 C 41.710938 0 45.59375 3.339844 45.59375 7.464844 C 45.589844 8.996094 45.0625 10.480469 44.101562 11.671875 Z M 44.101562 11.671875 " fill-opacity="1" fill-rule="nonzero"/></g><path fill="#ecf0f1" d="M 32.15625 9.554688 C 31.992188 9.554688 31.859375 9.421875 31.859375 9.253906 L 31.859375 5.671875 C 31.859375 4.1875 33.0625 2.984375 34.546875 2.984375 C 36.03125 2.984375 37.234375 4.1875 37.234375 5.671875 L 37.234375 8.359375 C 37.234375 8.523438 37.101562 8.65625 36.933594 8.65625 C 36.769531 8.65625 36.636719 8.523438 36.636719 8.359375 L 36.636719 5.671875 C 36.636719 4.519531 35.699219 3.582031 34.546875 3.582031 C 33.390625 3.582031 32.457031 4.519531 32.457031 5.671875 L 32.457031 9.253906 C 32.457031 9.421875 32.324219 9.554688 32.15625 9.554688 Z M 32.15625 9.554688 " fill-opacity="1" fill-rule="nonzero"/><path fill="#ecf0f1" d="M 36.933594 6.566406 L 32.15625 6.566406 C 31.992188 6.566406 31.859375 6.433594 31.859375 6.269531 C 31.859375 6.105469 31.992188 5.96875 32.15625 5.96875 L 36.933594 5.96875 C 37.101562 5.96875 37.234375 6.105469 37.234375 6.269531 C 37.234375 6.433594 37.101562 6.566406 36.933594 6.566406 Z M 36.933594 6.566406 " fill-opacity="1" fill-rule="nonzero"/><path fill="#ffffff" d="M 44.101562 11.671875 C 44.4375 12.359375 45.023438 13.460938 45.59375 14.03125 C 45.59375 14.03125 44.007812 15.355469 41.082031 14.03125 C 38.179688 15.371094 34.808594 15.214844 32.039062 13.621094 L 41.953125 1.378906 C 45.84375 3.765625 46.714844 8.359375 44.101562 11.671875 Z M 44.101562 11.671875 " fill-opacity="1" fill-rule="nonzero"/><path fill="#d9d9d9" d="M 42.609375 6.867188 C 42.609375 7.03125 42.476562 7.164062 42.308594 7.164062 L 37.269531 7.164062 L 37.753906 6.566406 L 42.308594 6.566406 C 42.476562 6.566406 42.609375 6.703125 42.609375 6.867188 Z M 42.609375 6.867188 " fill-opacity="1" fill-rule="nonzero"/><path fill="#d9d9d9" d="M 39.921875 7.164062 C 39.757812 7.164062 39.621094 7.03125 39.621094 6.867188 L 39.621094 5.671875 C 39.621094 5.507812 39.757812 5.375 39.921875 5.375 C 40.085938 5.375 40.21875 5.507812 40.21875 5.671875 L 40.21875 6.867188 C 40.21875 7.03125 40.085938 7.164062 39.921875 7.164062 Z M 39.921875 7.164062 " fill-opacity="1" fill-rule="nonzero"/><path fill="#d9d9d9" d="M 38.128906 11.941406 C 37.964844 11.941406 37.832031 11.808594 37.832031 11.644531 C 37.832031 11.480469 37.964844 11.34375 38.128906 11.34375 C 39.621094 11.34375 40.816406 9.902344 40.816406 8.132812 L 40.816406 6.867188 C 40.816406 6.703125 40.949219 6.566406 41.117188 6.566406 C 41.28125 6.566406 41.414062 6.703125 41.414062 6.867188 L 41.414062 8.132812 C 41.414062 10.230469 39.941406 11.941406 38.128906 11.941406 Z M 38.128906 11.941406 " fill-opacity="1" fill-rule="nonzero"/><path fill="#d9d9d9" d="M 41.710938 11.941406 C 39.898438 11.941406 38.429688 10.203125 38.429688 8.0625 C 38.429688 7.894531 38.5625 7.761719 38.726562 7.761719 C 38.890625 7.761719 39.023438 7.894531 39.023438 8.0625 C 39.023438 9.851562 40.253906 11.34375 41.710938 11.34375 C 41.878906 11.34375 42.011719 11.480469 42.011719 11.644531 C 42.011719 11.808594 41.878906 11.941406 41.710938 11.941406 Z M 41.710938 11.941406 " fill-opacity="1" fill-rule="nonzero"/><g transform="matrix(1, 0, 0, 1, 17, 15)"><g clip-path="url(#2c6f7e945e)"><g fill="#272727" fill-opacity="1"><g transform="translate(0.911305, 9.341565)"><g><path d="M 1.234375 0 C 1.046875 0 0.898438 -0.046875 0.796875 -0.140625 C 0.703125 -0.242188 0.65625 -0.390625 0.65625 -0.578125 L 0.65625 -5.421875 C 0.65625 -5.597656 0.703125 -5.738281 0.796875 -5.84375 C 0.898438 -5.945312 1.046875 -6 1.234375 -6 L 2.875 -6 C 3.882812 -6 4.660156 -5.738281 5.203125 -5.21875 C 5.753906 -4.707031 6.03125 -3.96875 6.03125 -3 C 6.03125 -2.519531 5.957031 -2.09375 5.8125 -1.71875 C 5.675781 -1.351562 5.472656 -1.039062 5.203125 -0.78125 C 4.929688 -0.53125 4.601562 -0.335938 4.21875 -0.203125 C 3.832031 -0.0664062 3.382812 0 2.875 0 Z M 1.75 -0.90625 L 2.8125 -0.90625 C 3.164062 -0.90625 3.46875 -0.945312 3.71875 -1.03125 C 3.976562 -1.125 4.191406 -1.253906 4.359375 -1.421875 C 4.535156 -1.597656 4.664062 -1.816406 4.75 -2.078125 C 4.84375 -2.335938 4.890625 -2.644531 4.890625 -3 C 4.890625 -3.695312 4.710938 -4.21875 4.359375 -4.5625 C 4.015625 -4.914062 3.5 -5.09375 2.8125 -5.09375 L 1.75 -5.09375 Z M 1.75 -0.90625 "/></g></g></g><g fill="#272727" fill-opacity="1"><g transform="translate(7.674391, 9.341565)"><g><path d="M 1.203125 0.0625 C 1.023438 0.0625 0.890625 0.015625 0.796875 -0.078125 C 0.703125 -0.179688 0.65625 -0.320312 0.65625 -0.5 L 0.65625 -5.5 C 0.65625 -5.675781 0.703125 -5.8125 0.796875 -5.90625 C 0.890625 -6.007812 1.023438 -6.0625 1.203125 -6.0625 C 1.378906 -6.0625 1.515625 -6.007812 1.609375 -5.90625 C 1.703125 -5.8125 1.75 -5.675781 1.75 -5.5 L 1.75 -0.5 C 1.75 -0.320312 1.703125 -0.179688 1.609375 -0.078125 C 1.515625 0.015625 1.378906 0.0625 1.203125 0.0625 Z M 1.203125 -6.703125 C 1.023438 -6.703125 0.890625 -6.75 0.796875 -6.84375 C 0.703125 -6.9375 0.65625 -7.066406 0.65625 -7.234375 C 0.65625 -7.410156 0.703125 -7.539062 0.796875 -7.625 C 0.890625 -7.71875 1.023438 -7.765625 1.203125 -7.765625 C 1.378906 -7.765625 1.515625 -7.71875 1.609375 -7.625 C 1.703125 -7.539062 1.75 -7.410156 1.75 -7.234375 C 1.75 -7.066406 1.703125 -6.9375 1.609375 -6.84375 C 1.515625 -6.75 1.378906 -6.703125 1.203125 -6.703125 Z M 1.203125 -6.703125 "/></g></g></g><g fill="#272727" fill-opacity="1"><g transform="translate(10.354126, 9.341565)"><g><path d="M 1.203125 0 C 1.023438 0 0.890625 -0.046875 0.796875 -0.140625 C 0.703125 -0.242188 0.65625 -0.382812 0.65625 -0.5625 L 0.65625 -5.46875 C 0.65625 -5.644531 0.703125 -5.78125 0.796875 -5.875 C 0.890625 -5.96875 1.023438 -6.015625 1.203125 -6.015625 C 1.378906 -6.015625 1.515625 -5.96875 1.609375 -5.875 C 1.703125 -5.78125 1.75 -5.644531 1.75 -5.46875 L 1.75 -0.921875 L 4.203125 -0.921875 C 4.359375 -0.921875 4.476562 -0.878906 4.5625 -0.796875 C 4.644531 -0.722656 4.6875 -0.613281 4.6875 -0.46875 C 4.6875 -0.320312 4.644531 -0.207031 4.5625 -0.125 C 4.476562 -0.0390625 4.359375 0 4.203125 0 Z M 1.203125 0 "/></g></g></g><g fill="#272727" fill-opacity="1"><g transform="translate(15.415816, 9.341565)"><g><path d="M 3.34375 0.078125 C 2.757812 0.078125 2.25 -0.046875 1.8125 -0.296875 C 1.382812 -0.554688 1.050781 -0.914062 0.8125 -1.375 C 0.570312 -1.832031 0.453125 -2.375 0.453125 -3 C 0.453125 -3.46875 0.519531 -3.890625 0.65625 -4.265625 C 0.789062 -4.648438 0.984375 -4.972656 1.234375 -5.234375 C 1.492188 -5.503906 1.800781 -5.710938 2.15625 -5.859375 C 2.507812 -6.003906 2.90625 -6.078125 3.34375 -6.078125 C 3.925781 -6.078125 4.429688 -5.953125 4.859375 -5.703125 C 5.296875 -5.453125 5.628906 -5.09375 5.859375 -4.625 C 6.097656 -4.164062 6.21875 -3.628906 6.21875 -3.015625 C 6.21875 -2.535156 6.148438 -2.109375 6.015625 -1.734375 C 5.878906 -1.359375 5.6875 -1.03125 5.4375 -0.75 C 5.1875 -0.476562 4.882812 -0.269531 4.53125 -0.125 C 4.175781 0.0078125 3.78125 0.078125 3.34375 0.078125 Z M 3.34375 -0.84375 C 3.707031 -0.84375 4.019531 -0.925781 4.28125 -1.09375 C 4.539062 -1.269531 4.738281 -1.519531 4.875 -1.84375 C 5.007812 -2.164062 5.078125 -2.550781 5.078125 -3 C 5.078125 -3.675781 4.925781 -4.203125 4.625 -4.578125 C 4.320312 -4.953125 3.894531 -5.140625 3.34375 -5.140625 C 2.976562 -5.140625 2.664062 -5.054688 2.40625 -4.890625 C 2.144531 -4.722656 1.941406 -4.476562 1.796875 -4.15625 C 1.660156 -3.84375 1.59375 -3.457031 1.59375 -3 C 1.59375 -2.320312 1.742188 -1.789062 2.046875 -1.40625 C 2.359375 -1.03125 2.789062 -0.84375 3.34375 -0.84375 Z M 3.34375 -0.84375 "/></g></g></g><g fill="#272727" fill-opacity="1"><g transform="translate(22.374564, 9.341565)"><g><path d="M 1.203125 0 C 1.023438 0 0.890625 -0.046875 0.796875 -0.140625 C 0.703125 -0.242188 0.65625 -0.382812 0.65625 -0.5625 L 0.65625 -5.46875 C 0.65625 -5.644531 0.703125 -5.78125 0.796875 -5.875 C 0.890625 -5.96875 1.023438 -6.015625 1.203125 -6.015625 C 1.378906 -6.015625 1.515625 -5.96875 1.609375 -5.875 C 1.703125 -5.78125 1.75 -5.644531 1.75 -5.46875 L 1.75 -0.921875 L 4.203125 -0.921875 C 4.359375 -0.921875 4.476562 -0.878906 4.5625 -0.796875 C 4.644531 -0.722656 4.6875 -0.613281 4.6875 -0.46875 C 4.6875 -0.320312 4.644531 -0.207031 4.5625 -0.125 C 4.476562 -0.0390625 4.359375 0 4.203125 0 Z M 1.203125 0 "/></g></g></g><g fill="#272727" fill-opacity="1"><g transform="translate(27.436254, 9.341565)"><g><path d="M 3.34375 0.078125 C 2.757812 0.078125 2.25 -0.046875 1.8125 -0.296875 C 1.382812 -0.554688 1.050781 -0.914062 0.8125 -1.375 C 0.570312 -1.832031 0.453125 -2.375 0.453125 -3 C 0.453125 -3.46875 0.519531 -3.890625 0.65625 -4.265625 C 0.789062 -4.648438 0.984375 -4.972656 1.234375 -5.234375 C 1.492188 -5.503906 1.800781 -5.710938 2.15625 -5.859375 C 2.507812 -6.003906 2.90625 -6.078125 3.34375 -6.078125 C 3.925781 -6.078125 4.429688 -5.953125 4.859375 -5.703125 C 5.296875 -5.453125 5.628906 -5.09375 5.859375 -4.625 C 6.097656 -4.164062 6.21875 -3.628906 6.21875 -3.015625 C 6.21875 -2.535156 6.148438 -2.109375 6.015625 -1.734375 C 5.878906 -1.359375 5.6875 -1.03125 5.4375 -0.75 C 5.1875 -0.476562 4.882812 -0.269531 4.53125 -0.125 C 4.175781 0.0078125 3.78125 0.078125 3.34375 0.078125 Z M 3.34375 -0.84375 C 3.707031 -0.84375 4.019531 -0.925781 4.28125 -1.09375 C 4.539062 -1.269531 4.738281 -1.519531 4.875 -1.84375 C 5.007812 -2.164062 5.078125 -2.550781 5.078125 -3 C 5.078125 -3.675781 4.925781 -4.203125 4.625 -4.578125 C 4.320312 -4.953125 3.894531 -5.140625 3.34375 -5.140625 C 2.976562 -5.140625 2.664062 -5.054688 2.40625 -4.890625 C 2.144531 -4.722656 1.941406 -4.476562 1.796875 -4.15625 C 1.660156 -3.84375 1.59375 -3.457031 1.59375 -3 C 1.59375 -2.320312 1.742188 -1.789062 2.046875 -1.40625 C 2.359375 -1.03125 2.789062 -0.84375 3.34375 -0.84375 Z M 3.34375 -0.84375 "/></g></g></g><g fill="#272727" fill-opacity="1"><g transform="translate(34.395002, 9.341565)"><g><path d="M 0.390625 0.0625 C 0.234375 0.0625 0.109375 0.0195312 0.015625 -0.0625 C -0.078125 -0.15625 -0.125 -0.273438 -0.125 -0.421875 C -0.125 -0.523438 -0.0859375 -0.617188 -0.015625 -0.703125 C 0.046875 -0.785156 0.140625 -0.828125 0.265625 -0.828125 L 0.515625 -0.84375 C 0.765625 -0.863281 0.953125 -0.941406 1.078125 -1.078125 C 1.210938 -1.222656 1.28125 -1.425781 1.28125 -1.6875 L 1.28125 -5.515625 C 1.28125 -5.691406 1.328125 -5.828125 1.421875 -5.921875 C 1.515625 -6.015625 1.644531 -6.0625 1.8125 -6.0625 C 1.988281 -6.0625 2.125 -6.015625 2.21875 -5.921875 C 2.3125 -5.828125 2.359375 -5.691406 2.359375 -5.515625 L 2.359375 -1.6875 C 2.359375 -1.332031 2.296875 -1.03125 2.171875 -0.78125 C 2.046875 -0.53125 1.859375 -0.332031 1.609375 -0.1875 C 1.359375 -0.0507812 1.050781 0.0234375 0.6875 0.046875 Z M 0.390625 0.0625 "/></g></g></g><g fill="#272727" fill-opacity="1"><g transform="translate(37.687241, 9.341565)"><g><path d="M 1.203125 0.0625 C 1.023438 0.0625 0.890625 0.015625 0.796875 -0.078125 C 0.703125 -0.179688 0.65625 -0.320312 0.65625 -0.5 L 0.65625 -5.5 C 0.65625 -5.675781 0.703125 -5.8125 0.796875 -5.90625 C 0.890625 -6.007812 1.023438 -6.0625 1.203125 -6.0625 C 1.378906 -6.0625 1.515625 -6.007812 1.609375 -5.90625 C 1.703125 -5.8125 1.75 -5.675781 1.75 -5.5 L 1.75 -0.5 C 1.75 -0.320312 1.703125 -0.179688 1.609375 -0.078125 C 1.515625 0.015625 1.378906 0.0625 1.203125 0.0625 Z M 1.203125 -6.703125 C 1.023438 -6.703125 0.890625 -6.75 0.796875 -6.84375 C 0.703125 -6.9375 0.65625 -7.066406 0.65625 -7.234375 C 0.65625 -7.410156 0.703125 -7.539062 0.796875 -7.625 C 0.890625 -7.71875 1.023438 -7.765625 1.203125 -7.765625 C 1.378906 -7.765625 1.515625 -7.71875 1.609375 -7.625 C 1.703125 -7.539062 1.75 -7.410156 1.75 -7.234375 C 1.75 -7.066406 1.703125 -6.9375 1.609375 -6.84375 C 1.515625 -6.75 1.378906 -6.703125 1.203125 -6.703125 Z M 1.203125 -6.703125 "/></g></g></g></g></g></svg>
